PathFileType	4	(X/Y/Z)	56_2_27_p1_0-286_filt_butterworth.trc
DataRate	CameraRate	NumFrames	NumMarkers	Units	OrigDataRate	OrigDataStartFrame	OrigNumFrames
59.0	59.0	5	27	m	59.0	0	286
Frame#	Time	RHip			RKnee			RAnkle			RBigToe			RSmallToe			RHeel			LHip			LKnee			LAnkle			LBigToe			LSmallToe			LHeel			Neck			Head			Nose			RShoulder			RElbow			RWrist			RThumb			RIndex			RPinky			LShoulder			LElbow			LWrist			LThumb			LIndex			LPinky			
		X1	Y1	Z1	X2	Y2	Z2	X3	Y3	Z3	X4	Y4	Z4	X5	Y5	Z5	X6	Y6	Z6	X7	Y7	Z7	X8	Y8	Z8	X9	Y9	Z9	X10	Y10	Z10	X11	Y11	Z11	X12	Y12	Z12	X13	Y13	Z13	X14	Y14	Z14	X15	Y15	Z15	X16	Y16	Z16	X17	Y17	Z17	X18	Y18	Z18	X19	Y19	Z19	X20	Y20	Z20	X21	Y21	Z21	X22	Y22	Z22	X23	Y23	Z23	X24	Y24	Z24	X25	Y25	Z25	X26	Y26	Z26	X27	Y27	Z27	
0	0.0	0.48386686740875645	0.7305747849929571	0.3446976513623434	0.5047036466896704	0.8772549970218544	0.6677973532212702	0.508865970653321	1.0694000094154792	1.0455743153471047	0.42339812853852654	0.8850770658169855	1.1475073470753434	0.4967652451306871	0.8976615317638394	1.1493746528385178	0.5097024100047644	1.1633014997313764	1.0868171077621551	0.26978344034245033	0.8124081649017916	0.3306241120037245	0.30799836549759324	0.942826255792639	0.658964960150781	0.3248448980550791	1.090551322142464	1.0056450352939532	0.2574013262599546	0.8996180069195443	1.1118843168671573	0.22401629465887613	0.9846567131038924	1.1083686412600116	0.3638859716058983	1.1661843165011894	1.0488673938911077	0.3532900278592662	0.5483110292006298	-0.22044182038338617	0.34203685752763	0.414371693932155	-0.4384642222976318	0.32781390790301296	0.4189270608410664	-0.3022893628148972	0.5138337097069616	0.5126919445753493	-0.1167708191605478	0.557985898079459	0.522692271683681	0.14752057937606788	0.38318344818118477	0.522263250205388	0.29719001497128356	0.2987738639658977	0.5193244007276518	0.30067969430161173	0.27914221844923304	0.5597788476332219	0.3460474774842222	0.29297047443967195	0.5883942617483165	0.3868975535321452	0.19570420715863485	0.6196909662327637	-0.1666085304358626	0.13562139718654356	0.7228085503746752	0.09280523994550488	0.27714737974281367	0.5828618541769789	0.268365613990138	0.3365388057791533	0.5079527225752598	0.30403700620293705	0.3351213623013446	0.5020626021767483	0.34640158601923393	0.32648817411475445	0.5751585387987179	0.3672031154298879
1	0.0169491525423728	0.48375387655212115	0.7305577539127894	0.3449100443911294	0.5044223587693932	0.8774473791845657	0.6718248732636495	0.5080871073799238	1.0690182330672888	1.050276283046831	0.42042543784683806	0.8844149122220627	1.1462392378203465	0.49680624849802607	0.8885109547118619	1.1491646051303457	0.5097301104067827	1.163814643657779	1.0917211909061162	0.2721911501756623	0.8109456096458969	0.3270105275809449	0.30757089632156454	0.9416077706086281	0.6572625584470999	0.3247560159954865	1.0903518187399848	1.0057978284175024	0.25711164437431655	0.8997265006449665	1.1118743992859166	0.22406835203039271	0.9847292351863975	1.108271647609624	0.36270836471400014	1.1653553623759383	1.0481181996976536	0.35346246666955206	0.5487730502369176	-0.21990430340263198	0.3419181889332994	0.4143586783032044	-0.4384163483813745	0.32774409798561277	0.41888564430419584	-0.3020744507196398	0.5137832437859149	0.5126072726002756	-0.11684478561631911	0.558679738971256	0.5288669364370863	0.148402146853312	0.38260696581688175	0.5212821829846327	0.2939864871606118	0.29556360628526973	0.5363161089505502	0.3035363102793632	0.27916308192339345	0.5617813106219116	0.35102231017057095	0.2944430453279028	0.5906290535911984	0.38447034202622205	0.1957276801086189	0.6197320008797861	-0.16664196177952653	0.1353704149659932	0.7234826530898838	0.09462307126752911	0.27718622192596165	0.5827441627060135	0.2682830586257326	0.33360916375330113	0.5073633922556493	0.30652987124666214	0.3351435017816925	0.5032960907019353	0.34881461548969267	0.3278282052925757	0.5767497126584308	0.3661983735337737
2	0.0338983050847457	0.4837008345156617	0.7305461448076742	0.345025042714188	0.5042219290324115	0.8777986845495471	0.6747229979716086	0.507830697459167	1.0695839090992296	1.0543001704930628	0.4186102690364985	0.8839552089959357	1.1451681329653318	0.4959217736938646	0.8818464833278691	1.1486282646382333	0.5103639229835313	1.1654049198171705	1.0964652439769134	0.2734776141773361	0.8099204063352133	0.3242357615598207	0.30716199368070274	0.9404768287559367	0.6556219609568945	0.32470768830587227	1.0902839410555252	1.0059337640909576	0.2569021038559745	0.8997871278314752	1.111864801500839	0.22410017864585952	0.9847877848973563	1.108201596239053	0.36191574816422717	1.1653355061318926	1.0485325266226164	0.35354599536410397	0.5489265363858356	-0.22047171702649127	0.34183301709412334	0.41435152267325	-0.43839396398419983	0.3277167737014692	0.4188607030867085	-0.30195233854414066	0.5137667514285365	0.5125734294732069	-0.11686902293696858	0.5592809025701612	0.5348076920564135	0.1492886693408635	0.38210567187018385	0.5206171095553422	0.2925916172144242	0.29360546972046275	0.5486716753701664	0.3061326833208808	0.27898283350509945	0.562984919937742	0.35424708146654194	0.2942929246533976	0.59075918302745	0.38366052040010157	0.19572847145140254	0.6197337795229397	-0.1666714286808757	0.13525768680547567	0.7239384246360555	0.09570475712793908	0.2772017799164952	0.5827085868163945	0.2682195549530517	0.33182472973920873	0.507270115564048	0.3070743461789011	0.3342864940027607	0.5040474500447172	0.35021464601948066	0.3286374130016714	0.5775763104664589	0.36571352950766267
3	0.0508474576271186	0.4837059121400708	0.7305276129121514	0.34507176473403894	0.5041216558766288	0.8781710821247026	0.6760657733182417	0.5079898331558268	1.0707102932952275	1.056873622971017	0.4180749829870357	0.8832917577054906	1.144630058885702	0.4946387537672541	0.878886686415006	1.1484897143221606	0.5112000631253412	1.167410915330894	1.1001307560948008	0.27368741326256396	0.8093824168211039	0.3227562731071334	0.30688271160849334	0.9397396825173844	0.6544995019729493	0.32469664918666596	1.0903210428025474	1.0060182250333842	0.2568167462401655	0.8998563637144862	1.1118622827706823	0.22410910773821754	0.984792305536655	1.1081406280012684	0.3616030500318829	1.165834960210012	1.0495903119368093	0.3535527598309929	0.5488314653476034	-0.22206205417041247	0.3417972882452211	0.414356942394455	-0.43840669905764645	0.3277826633804769	0.41893155527910175	-0.3019530977483899	0.5137875499062546	0.5125930671873401	-0.1168437078792961	0.5596319759567284	0.5389623738431905	0.1499423459213604	0.38170147430584284	0.5202283725161893	0.29278522454230144	0.29262743810823766	0.5540703927096744	0.306460038459682	0.27863035536264674	0.5631143228985411	0.3551302207504292	0.2931188616641827	0.5896976953264264	0.384884556170901	0.19571262724766797	0.6196837291459789	-0.16671301818888629	0.13523801039446615	0.7241263171841937	0.09599739288762689	0.27718934352383706	0.5827376071185071	0.2681860313834721	0.3313385859222183	0.507548365869505	0.30581436418928104	0.3327588277332843	0.504225859059294	0.35020115669596985	0.3287757058449583	0.5771461955130011	0.36529275473447115
4	0.0677966101694915	0.48372839700483383	0.7304867266451187	0.3451200849535485	0.5040756271285394	0.8783741416838428	0.676310115604067	0.5082990456597886	1.0715732579107415	1.0580954478914837	0.41811326399914595	0.8815223234845413	1.1445159086787768	0.49384354967747435	0.8786946323854993	1.149302470597539	0.51164803177465	1.1686867922728008	1.1019749214794377	0.27355309125289207	0.8091584447360104	0.32233941687199913	0.306777747314938	0.939534725753336	0.6541473331354863	0.32469305547990535	1.0903596517524317	1.0060426841311267	0.2568229941030573	0.8999665853731993	1.1118661564826458	0.224105111901501	0.984705239683171	1.108062191314228	0.3615921803802279	1.1661910188112574	1.050317318611898	0.35361307327952796	0.5489361772658418	-0.2232419585131824	0.3417943395257518	0.4143716911716253	-0.4384389661924828	0.32792791021480966	0.41911840775595083	-0.30202669577668706	0.5138196813207911	0.512629862592557	-0.11680677920401944	0.5597011973482996	0.5405461573159863	0.15020414625106987	0.3814559398318392	0.5200564404503144	0.29335167839715476	0.29169832447346544	0.5536677579283537	0.30323761131449345	0.27832012933365113	0.5626227713245281	0.35459467165250896	0.2922682506809526	0.5891215923784586	0.3870224387143412	0.1956948852132518	0.6196030723168428	-0.1667661632394537	0.13520462587367454	0.7241495138934922	0.0959186048407951	0.27716525694520616	0.5827688880561619	0.268181147405189	0.33156614623173225	0.5077991174279641	0.30431517562668936	0.33151220912817336	0.5040351558345281	0.34886962429560503	0.3285829440915285	0.5757810678129985	0.3641461501951622
